# xmcd
#
# Track frame offsets: 
#        150
#        15823
#        29067
#        43146
#        57502
#        71453
#        84283
#        96685
#        113579
#        127985
#
# Disc length: 2131 seconds
#
# Revision: 0
# Processed by: cddbd v1.5.2PL0 Copyright (c) Steve Scherf et al.
# Submitted via: ExactAudioCopyFreeDBPlugin 1.0
#
DISCID=7f08510a
DTITLE=Michael Rault - It's A New Day Tonight
DYEAR=2018
DGENRE=Psych Pop
TTITLE0=I'll Be There
TTITLE1=New Day Tonight
TTITLE2=Sleep With Me
TTITLE3=Oh, Clever Boy
TTITLE4=Sitting Still
TTITLE5=Dream Song
TTITLE6=Pyramid Scheme
TTITLE7=Out Of The Light
TTITLE8=Sleeping and Smiling
TTITLE9=When The Sun Shines
EXTD=
EXTT0=
EXTT1=
EXTT2=
EXTT3=
EXTT4=
EXTT5=
EXTT6=
EXTT7=
EXTT8=
EXTT9=
PLAYORDER=
